<svg width="25" height="25" viewBox="0 0 25 25" fill="none" xmlns="http://www.w3.org/2000/svg">
<path d="M23.4313 24.875C20.475 24.875 17.5935 24.2219 14.7866 22.9156C11.9798 21.6094 9.49333 19.8677 7.32725 17.6906C5.16117 15.5135 3.4195 13.0211 2.10225 10.2134C0.785 7.40562 0.125917 4.52408 0.125 1.56875V0.846875C0.125 0.594792 0.147917 0.354167 0.19375 0.125H8.2375L9.50937 7.03437L5.59062 10.9875C6.55312 12.6375 7.76221 14.1844 9.21787 15.6281C10.6735 17.0719 12.2718 18.3208 14.0125 19.375L18 15.3875L24.875 16.7625V24.8063C24.6458 24.8292 24.4052 24.8466 24.1531 24.8585C23.901 24.8704 23.6604 24.8759 23.4313 24.875Z" fill="#309CFF"/>
</svg>
