<svg width="20" height="20" viewBox="0 0 20 20" fill="none" xmlns="http://www.w3.org/2000/svg"><path d="m8.717 11.65-1.97-1.97a.87.87 0 0 0-.642-.253.87.87 0 0 0-.642.252.87.87 0 0 0-.252.642c0 .26.084.474.252.642l2.613 2.612a.88.88 0 0 0 .641.275.88.88 0 0 0 .642-.275l5.18-5.179a.87.87 0 0 0 .251-.642.87.87 0 0 0-.252-.641.87.87 0 0 0-.642-.252.87.87 0 0 0-.641.252L8.717 11.65Zm1.284 7.517a8.92 8.92 0 0 1-3.575-.723 9.272 9.272 0 0 1-2.91-1.958 9.251 9.251 0 0 1-1.96-2.91A8.942 8.942 0 0 1 .834 10c0-1.268.24-2.46.722-3.575a9.271 9.271 0 0 1 1.96-2.91 9.25 9.25 0 0 1 2.91-1.96A8.942 8.942 0 0 1 10 .834c1.268 0 2.46.241 3.575.723a9.272 9.272 0 0 1 2.91 1.959 9.264 9.264 0 0 1 1.96 2.91A8.91 8.91 0 0 1 19.167 10c0 1.268-.24 2.46-.722 3.575a9.273 9.273 0 0 1-1.959 2.91 9.263 9.263 0 0 1-2.91 1.96 8.91 8.91 0 0 1-3.575.722Zm0-1.834c2.047 0 3.78-.71 5.202-2.13 1.42-1.422 2.131-3.156 2.131-5.203s-.71-3.781-2.131-5.202C13.782 3.378 12.048 2.667 10 2.667c-2.048 0-3.782.71-5.202 2.131C3.378 6.218 2.667 7.953 2.667 10s.71 3.781 2.132 5.202c1.42 1.421 3.154 2.132 5.202 2.132Z" fill="#0084FF"/></svg>