<svg width="16" height="16" viewBox="0 0 16 16" fill="none" xmlns="http://www.w3.org/2000/svg">
<g id="mingcute:left-fill">
<g id="Group">
<path id="Vector" fill-rule="evenodd" clip-rule="evenodd" d="M10.7067 8.70666C10.894 8.51916 10.9991 8.265 10.9991 7.99999C10.9991 7.73499 10.894 7.48083 10.7067 7.29333L6.93603 3.52133C6.74843 3.33382 6.49403 3.22851 6.22879 3.22858C6.09746 3.22861 5.96742 3.25451 5.84609 3.30479C5.72477 3.35508 5.61454 3.42877 5.52169 3.52166C5.42885 3.61455 5.35521 3.72482 5.30498 3.84616C5.25475 3.96751 5.22891 4.09756 5.22894 4.2289C5.22897 4.36023 5.25487 4.49027 5.30516 4.61159C5.35545 4.73292 5.42914 4.84315 5.52203 4.93599L8.58603 7.99999L5.52203 11.064C5.42647 11.1562 5.35024 11.2665 5.29777 11.3885C5.24531 11.5105 5.21766 11.6417 5.21644 11.7744C5.21523 11.9072 5.24047 12.0389 5.29069 12.1618C5.34091 12.2848 5.41511 12.3964 5.50896 12.4904C5.60281 12.5843 5.71443 12.6586 5.8373 12.709C5.96017 12.7593 6.09184 12.7847 6.22462 12.7836C6.3574 12.7825 6.48863 12.755 6.61066 12.7026C6.73269 12.6503 6.84307 12.5741 6.93536 12.4787L10.708 8.70666H10.7067Z" fill="#515151"/>
</g>
</g>
</svg>
